<?xml version="1.0" encoding="utf-8"?>
<!-- Generator: Adobe Illustrator 16.0.0, SVG Export Plug-In . SVG Version: 6.00 Build 0)  -->
<!DOCTYPE svg PUBLIC "-//W3C//DTD SVG 1.1//EN" "http://www.w3.org/Graphics/SVG/1.1/DTD/svg11.dtd">
<svg version="1.1" id="圖層_1" xmlns="http://www.w3.org/2000/svg" xmlns:xlink="http://www.w3.org/1999/xlink" x="0px" y="0px"
	 width="670.5px" height="96.458px" viewBox="0 345.515 670.5 96.458" enable-background="new 0 345.515 670.5 96.458"
	 xml:space="preserve">
<g>
	<path fill="#1a1a1a" d="M437.656,393.428l-1.541-0.349l1.527-0.457c6.704-2.302,12.367-11.032,12.367-19.066
		c0-14.873-8.656-22.415-25.731-22.415h-27.996v20.142v54.59c0,4.223-0.286,8.137-0.668,12.154h0.668h6.286h22.599
		c16.917,0,26.619-8.827,26.619-24.218C451.786,403.803,446.24,395.804,437.656,393.428 M402.569,357.411h22.861
		c14.786,0,17.889,8.679,17.889,15.959c0,10.635-6.352,16.492-17.889,16.492h-22.861v-18.58V357.411z M426.267,431.757h-23.698
		v-35.622h23.929c9.199,0,18.515,6.26,18.515,18.226C445.012,425.58,438.354,431.757,426.267,431.757"/>
	<path fill="#1a1a1a" d="M294.578,366.087h15.398c4.048,0,7.306-0.213,9.97-0.641v6.832h-18.262v67.407h-7.206
		c0.394-4.163,0.692-8.219,0.692-12.597v-54.811h-3.85 M331.002,366.087h22.999c4.146,0,7.406-0.213,10.069-0.641v6.832h-13.48
		v57.908c0,6.724-2.565,8.432-12.241,8.432c-2.566,0-9.179-0.321-9.179-0.321l-1.779-7.15c0,0,8.885,0.853,11.65,0.853
		c3.947,0,5.032-0.532,5.032-2.561v-57.16h-15.935"/>
	<path fill="#1a1a1a" d="M292.221,358.673l2.949-5.432c1.897-3.497,2.811-5.393,3.622-7.726l5.277,3.35l-23.036,42.436l-4.853-3.08
		l13.094-24.118L292.221,358.673z"/>
	<path fill="#1a1a1a" d="M331.076,358.673l2.948-5.432c1.9-3.497,2.814-5.393,3.623-7.726l5.277,3.35l-23.035,42.436l-4.852-3.08
		l13.091-24.118L331.076,358.673z"/>
	<path fill="#1a1a1a" d="M514.884,395.012H497.11v18.892c0,3.627-0.1,5.978-0.396,8.858c2.765-0.32,5.921-0.426,10.562-0.426h17.481
		v-19.426c0-3.631,0.099-5.872,0.396-8.326C522.585,394.906,519.723,395.012,514.884,395.012 M518.832,416.892h-15.801v-16.33
		h15.801V416.892z"/>
	<path fill="#1a1a1a" d="M550.078,395.012h-17.775v18.892c0,3.627-0.098,5.978-0.395,8.858c2.764-0.32,5.92-0.426,10.56-0.426
		h17.482v-19.426c0-3.631,0.099-5.872,0.396-8.326C557.78,394.906,554.916,395.012,550.078,395.012 M554.029,416.892h-15.802v-16.33
		h15.802V416.892z"/>
	<path fill="#1a1a1a" d="M551.999,430.234c6.319,0,8.885-0.106,11.747-0.533v6.616h-73.242v5.656h-6.813
		c0.395-4.267,0.594-7.577,0.594-13.446v-78.238h65.741c5.624,0,8.392-0.106,11.747-0.64v6.724h-71.269v73.861H551.999z"/>
	<path fill="#1a1a1a" d="M537.885,363.845h-30.009v15.37c0,3.629-0.1,5.978-0.395,8.858c2.763-0.32,5.921-0.426,10.562-0.426h29.714
		v-15.904c0-3.628,0.097-5.87,0.393-8.324C545.583,363.739,542.722,363.845,537.885,363.845 M541.834,382.204h-28.035v-12.81h28.035
		V382.204z"/>
	<path fill="#1a1a1a" d="M186.127,355.519h9.178c4.048,0,5.924-0.106,8.292-0.534v6.618h-42.249v-6.084h18.558"/>
	<polygon fill="#1a1a1a" points="184.894,381.388 191.891,362.542 197.113,364.808 190.114,383.655 	"/>
	<polygon fill="#1a1a1a" points="178.467,376.987 173.104,362.542 167.883,364.808 173.246,379.253 	"/>
	<path fill="#1a1a1a" d="M208.769,409.985c0,8.484-5.08,17.931-10.076,24.571c2.101,1.746,3.795,3.078,5.626,4.483
		c3.355-4.91,10.828-16.061,10.828-29.053v-54.468h-6.37v54.468L208.769,409.985z"/>
	<path fill="#1a1a1a" d="M231.063,350.877l4.755-1.09c3.061-0.702,4.651-1.175,6.423-2.017l1.269,6.473l-33.567,7.227l-1.167-5.951
		l17.535-3.555L231.063,350.877z"/>
	<path fill="#1a1a1a" d="M238.979,388.073v51.816h-7.008c0.395-2.773,0.59-5.444,0.59-10.673v-41.144H238.979z"/>
	<path fill="#1a1a1a" d="M179.907,407.777v22.936c0,3.521-0.198,6.403-0.593,9.177h0.593h5.724v-32.112H179.907z"/>
	<path fill="#1a1a1a" d="M179.907,403.871v-15.798h6.119c-0.295,1.283-0.395,2.989-0.395,4.377v11.421H179.907z"/>
	<path fill="#1a1a1a" d="M179.907,358.123V347.77h6.712c-0.394,2.24-0.492,3.948-0.492,7.47v2.883"/>
	<rect x="162.085" y="398.105" fill="#1a1a1a" width="14.209" height="5.766"/>
	<path fill="#1a1a1a" d="M195.602,398.105h-10.699v5.766h18.694v-6.404C201.03,398,199.056,398.105,195.602,398.105"/>
	<path fill="#1a1a1a" d="M176.295,407.777h-2.686l-2.078,2.227l-4.117,4.451l-4.119,4.452c-2.653,2.867-4.119,4.302-6.003,5.736
		l4.328,4.68l14.674-15.814V407.777z"/>
	<path fill="#1a1a1a" d="M198.223,415.069l-4.12-4.453l-2.626-2.839h-2.234v6.224l10.654,11.483l4.328-4.679
		C202.342,419.37,200.875,417.937,198.223,415.069"/>
	<path fill="#1a1a1a" d="M232.561,385.512h-17.414v-6.192h25.172c4.442,0,6.811-0.213,9.082-0.639v6.831h-10.422H232.561z"/>
	<path fill="#1a1a1a" d="M191.06,379.429h5.825c3.751,0,5.724-0.108,7.996-0.535v6.618h-45.507v-6.083h25.864"/>
	<polygon fill="#1a1a1a" points="0.945,438.184 0.945,416.574 3.806,416.574 3.806,425.448 15.038,425.448 15.038,416.574 
		17.912,416.574 17.912,438.184 15.038,438.184 15.038,428.013 3.806,428.013 3.806,438.184 	"/>
	<path fill="#1a1a1a" d="M37.474,416.574h2.654v3.037h-2.654V416.574z M37.474,422.544h2.654v15.641h-2.654V422.544z"/>
	<path fill="#1a1a1a" d="M71.115,432.449l2.639,0.326c-0.305,1.838-1.039,3.262-2.204,4.268c-1.166,1.007-2.607,1.51-4.327,1.51
		c-2.211,0-3.951-0.725-5.219-2.174c-1.267-1.449-1.901-3.443-1.901-5.976c0-2.566,0.636-4.577,1.91-6.028
		c1.271-1.457,3.018-2.184,5.239-2.184c1.592,0,2.967,0.425,4.129,1.274c1.159,0.849,1.856,2.072,2.092,3.663l-2.564,0.397
		c-0.501-2.111-1.691-3.17-3.568-3.17c-1.444,0-2.56,0.521-3.346,1.556c-0.786,1.039-1.18,2.515-1.18,4.43
		c0,1.938,0.379,3.422,1.136,4.453c0.756,1.032,1.838,1.548,3.243,1.548c1.002,0,1.874-0.319,2.617-0.958
		C70.552,434.746,70.987,433.767,71.115,432.449"/>
	<polyline fill="#1a1a1a" points="78.693,429.605 78.693,438.184 76.068,438.184 76.068,416.574 78.693,416.574 78.693,424.329 	"/>
	<path fill="#1a1a1a" d="M54.266,438.184v-10.119c0-2.098-1.661-3.424-3.709-3.424c-2.047,0-3.706,1.326-3.706,3.424v10.119h-2.668
		v-10.119c0-3.564,2.86-5.874,6.376-5.874c3.515,0,6.375,2.31,6.375,5.874v10.119H54.266z"/>
	<path fill="#1a1a1a" d="M86.151,438.184v-10.119c0-2.098-1.661-3.424-3.708-3.424c-2.048,0-3.707,1.326-3.707,3.424v10.119h-2.668
		v-10.119c0-3.564,2.86-5.874,6.376-5.874c3.515,0,6.375,2.31,6.375,5.874v10.119H86.151z"/>
	<path fill="#1a1a1a" d="M94.121,422.191v10.117c0,2.098,1.66,3.425,3.708,3.425c2.049,0,3.708-1.327,3.708-3.425v-10.117h2.668
		v10.117c0,3.565-2.861,5.876-6.376,5.876s-6.375-2.311-6.375-5.876v-10.117H94.121z"/>
	<path fill="#1a1a1a" d="M31.077,426.913c-0.047-0.358-0.436-2.166-3.526-2.169c-1.124-0.002-2.137,0.41-2.629,0.794
		c-0.276,0.218-0.867,0.746-0.501,1.555c0.461,1.019,2.608,1.452,3.174,1.595c1.58,0.407,3.901,0.98,4.972,1.833
		c0.898,0.707,1.555,1.721,1.631,3.207c0.065,1.265-0.397,2.533-1.27,3.477c-0.748,0.811-2.167,1.791-4.683,1.86
		c-0.088,0.002-0.176,0.004-0.264,0.004c-3.609-0.002-6.25-2.192-6.725-5.584l2.639-0.397c0.305,2.172,1.89,3.377,4.276,3.313
		c2.696-0.077,3.415-1.523,3.363-2.533c-0.089-1.725-2.25-2.063-4.379-2.536s-3.654-1.219-4.563-2.085
		c-0.713-0.683-1.02-1.635-1.02-2.559c0-1.337,0.645-2.42,1.707-3.251c1.061-0.829,2.857-1.361,4.271-1.361
		c3.66,0,5.658,1.63,6.12,4.483L31.077,426.913z"/>
	<path fill="#1a1a1a" d="M123.406,426.939c1.514-0.9,2.671-2.812,2.671-4.588c0-2.639-1.226-5.782-7.067-5.782h-7.526v21.571h7.754
		c4.569,0,7.297-2.32,7.297-6.209C126.535,429.66,125.339,427.789,123.406,426.939 M113.869,428.17h5.711
		c2.146,0,4.319,1.337,4.319,3.893c0,3.054-2.381,3.694-4.378,3.694h-5.652V428.17z M113.869,425.785v-6.831h5.437
		c2.759,0,4.158,1.127,4.158,3.354c0,2.875-2.261,3.478-4.158,3.478H113.869z"/>
	<path fill="#CF0A2C" d="M24.425,388.898c3.764,0,5.829-1.253,5.829-4.132c0-2.582-1.917-3.985-6.197-3.985h-8.19v8.117H24.425z
		 M21.769,369.269c3.615,0,5.607-1.475,5.607-4.057c0-2.805-1.55-4.207-5.239-4.207h-6.271v8.264H21.769z M35.346,373.403
		c5.978,1.402,10.773,5.829,10.773,12.913c0,9.076-7.6,14.462-19.407,14.462H0v-51.652h26.196c9.149,0,17.044,3.393,17.044,13.577
		c0,5.46-4.058,9.076-7.895,10.553V373.403z"/>
	<polygon fill="#CF0A2C" points="87.61,374.583 87.61,349.126 103.106,349.126 103.106,400.778 89.086,400.778 67.538,373.477 
		67.391,373.477 67.391,400.778 51.747,400.778 51.747,349.126 67.391,349.126 87.389,374.583 	"/>
	<polygon fill="#CF0A2C" points="109.787,349.125 125.652,349.125 109.787,364.924 	"/>
	<polygon fill="#CF0A2C" points="109.787,370.972 125.652,355.172 125.652,400.781 109.787,400.781 	"/>
	<path fill="#CF0A2C" d="M129.203,396.69c0.153-0.347,0.36-0.648,0.624-0.904c0.264-0.256,0.569-0.455,0.92-0.601
		c0.35-0.145,0.722-0.218,1.114-0.218c0.393,0,0.763,0.073,1.111,0.218c0.347,0.146,0.651,0.345,0.912,0.601
		c0.26,0.256,0.467,0.557,0.621,0.904c0.153,0.347,0.229,0.722,0.229,1.127c0,0.413-0.076,0.795-0.229,1.146
		c-0.154,0.35-0.361,0.653-0.621,0.911s-0.565,0.458-0.912,0.601c-0.348,0.145-0.718,0.216-1.111,0.216
		c-0.393,0-0.765-0.071-1.114-0.216c-0.351-0.143-0.656-0.343-0.92-0.601c-0.263-0.258-0.471-0.562-0.624-0.911
		c-0.154-0.351-0.23-0.732-0.23-1.146C128.973,397.412,129.05,397.037,129.203,396.69 M129.674,398.793
		c0.121,0.299,0.287,0.559,0.499,0.778c0.212,0.22,0.461,0.392,0.75,0.517c0.289,0.127,0.602,0.188,0.938,0.188
		c0.332,0,0.641-0.062,0.927-0.188c0.286-0.125,0.535-0.297,0.747-0.517c0.212-0.22,0.379-0.479,0.499-0.778s0.18-0.623,0.18-0.976
		c0-0.343-0.06-0.66-0.18-0.957c-0.12-0.298-0.286-0.553-0.499-0.771c-0.211-0.217-0.46-0.389-0.747-0.513
		c-0.287-0.127-0.595-0.188-0.927-0.188c-0.337,0-0.65,0.061-0.938,0.188c-0.289,0.124-0.538,0.296-0.75,0.513
		c-0.212,0.218-0.378,0.473-0.499,0.771c-0.119,0.297-0.181,0.614-0.181,0.957C129.492,398.17,129.555,398.494,129.674,398.793"/>
	<path fill="#CF0A2C" d="M132.267,398.017c0.242-0.025,0.446-0.104,0.609-0.242c0.163-0.135,0.244-0.348,0.244-0.641
		c0-0.312-0.093-0.545-0.278-0.698c-0.185-0.153-0.471-0.229-0.857-0.229h-1.254v3.243h0.505v-1.395h0.535l0.883,1.395h0.542
		L132.267,398.017z M131.796,397.692h-0.544v-1.063h0.69c0.087,0,0.175,0.006,0.265,0.02c0.09,0.012,0.168,0.036,0.238,0.072
		c0.068,0.036,0.125,0.088,0.168,0.152c0.043,0.067,0.065,0.154,0.065,0.269c0,0.132-0.024,0.236-0.073,0.31
		c-0.048,0.075-0.114,0.13-0.195,0.166c-0.082,0.035-0.175,0.058-0.28,0.064C132.025,397.689,131.914,397.692,131.796,397.692"/>
</g>
</svg>
